<svg id="Livello_1" data-name="Livello 1" xmlns="http://www.w3.org/2000/svg" viewBox="0 0 1583.21 335.46"><defs><style>.cls-1{fill:#231f20;}.cls-2{fill:none;stroke:#231f20;stroke-miterlimit:27.18;stroke-width:6.24px;}</style></defs><title>logo</title><path class="cls-1" d="M763.55,394.36h125V368.1h-125Zm345.87,0h125V368.1h-125Z" transform="translate(-207.39 -368.1)"/><rect class="cls-1" x="556.15" y="37.32" width="470.9" height="26.26"/><rect class="cls-1" x="556.15" y="74.64" width="470.9" height="26.26"/><path class="cls-1" d="M888.58,480.06h-125v26.26h125Zm345.87,0h-125v26.26h125Z" transform="translate(-207.39 -368.1)"/><path class="cls-1" d="M586.48,579.59H553.76V700.44h32.72ZM243.24,700.44v-52H345.41v52h33V579.59h-33v46.88H243.24V579.59H210.52V700.44Z" transform="translate(-207.39 -368.1)"/><path class="cls-2" d="M586.48,579.59H553.76V700.44h32.72ZM243.24,700.44v-52H345.41v52h33V579.59h-33v46.88H243.24V579.59H210.52V700.44Z" transform="translate(-207.39 -368.1)"/><path class="cls-1" d="M1787.48,598.08V576.47H1636.85v21.61h60v99.23h30.43V598.08Zm-386,99.23V651.7h22.68l50.38,45.61h43.66l-51.92-45.61h17.07q15.59,0,22.57-5.6t7-17.84V599.91q0-12.35-7-17.89t-22.57-5.55h-111.8V697.31Zm79.21-97.8q2.89,2.12,2.9,7.37V621.4c0,3.59-1,6.08-2.9,7.49s-5.55,2.12-10.82,2.12h-68.39V597.39h68.39q7.91,0,10.82,2.12" transform="translate(-207.39 -368.1)"/><path class="cls-2" d="M1787.48,598.08V576.47H1636.85v21.61h60v99.23h30.43V598.08Zm-386,99.23V651.7h22.68l50.38,45.61h43.66l-51.92-45.61h17.07q15.59,0,22.57-5.6t7-17.84V599.91q0-12.35-7-17.89t-22.57-5.55h-111.8V697.31Zm79.21-97.8q2.89,2.12,2.9,7.37V621.4c0,3.59-1,6.08-2.9,7.49s-5.55,2.12-10.82,2.12h-68.39V597.39h68.39Q1477.78,597.39,1480.69,599.51Z" transform="translate(-207.39 -368.1)"/><path class="cls-1" d="M791.68,700.43v-47.1h93.2q17.75,0,25.7-5.54T918.53,630V603q0-12.35-7.95-17.89t-25.7-5.55H757.61V700.43Zm90.18-97.8c2.2,1.41,3.31,3.87,3.31,7.37v12.92c0,3.59-1.11,6.08-3.31,7.49s-6.32,2.12-12.32,2.12H791.68v-32h77.86q9,0,12.32,2.11" transform="translate(-207.39 -368.1)"/><path class="cls-2" d="M791.68,700.43v-47.1h93.2q17.75,0,25.7-5.54T918.53,630V603q0-12.35-7.95-17.89t-25.7-5.55H757.61V700.43Zm90.18-97.8c2.2,1.41,3.31,3.87,3.31,7.37v12.92c0,3.59-1.11,6.08-3.31,7.49s-6.32,2.12-12.32,2.12H791.68v-32h77.86Q878.54,600.52,881.86,602.63Z" transform="translate(-207.39 -368.1)"/><polygon class="cls-1" points="1023.78 329.21 1023.78 306.46 913.02 306.46 913.02 276.51 1019.92 276.51 1019.92 255.93 913.02 255.93 913.02 228.95 1022.47 228.95 1022.47 208.37 880.81 208.37 880.81 329.21 1023.78 329.21"/><polygon class="cls-2" points="1023.78 329.21 1023.78 306.46 913.02 306.46 913.02 276.51 1019.92 276.51 1019.92 255.93 913.02 255.93 913.02 228.95 1022.47 228.95 1022.47 208.37 880.81 208.37 880.81 329.21 1023.78 329.21"/></svg>